<?xml version="1.0" standalone="no"?><!DOCTYPE svg PUBLIC "-//W3C//DTD SVG 1.1//EN" "http://www.w3.org/Graphics/SVG/1.1/DTD/svg11.dtd"><svg t="1520836185884" class="icon" style="" viewBox="0 0 1024 1024" version="1.1" xmlns="http://www.w3.org/2000/svg" p-id="1777" xmlns:xlink="http://www.w3.org/1999/xlink" width="32" height="32"><defs><style type="text/css"></style></defs><path d="M511.948815 0.307108c-282.23213 0-511.846446 229.614316-511.846446 511.846446s229.614316 511.846446 511.846446 511.846446 511.846446-229.614316 511.846446-511.846446S794.180946 0.307108 511.948815 0.307108zM511.948815 1003.014296c-270.664401 0-490.963111-220.196341-490.963111-490.963111S241.284415 21.190443 511.948815 21.190443s490.963111 220.196341 490.963111 490.963111S782.715585 1003.014296 511.948815 1003.014296z" p-id="1778"></path><path d="M783.53454 616.263121c-543.171449 0-543.171449 0-543.171449 0C240.363091 951.010697 770.53364 951.010697 783.53454 616.263121z" p-id="1779"></path><path d="M320.722983 473.86744c46.270919 0 83.840448-37.46716 83.840448-83.53334 0-46.168549-37.569529-83.53334-83.840448-83.53334s-83.840448 37.364791-83.840448 83.53334C236.882535 436.40028 274.349695 473.86744 320.722983 473.86744z" p-id="1780"></path><path d="M696.520644 473.86744c46.168549 0 83.53334-37.46716 83.53334-83.53334 0-46.168549-37.46716-83.53334-83.53334-83.53334-46.168549 0-83.53334 37.364791-83.53334 83.53334C612.884935 436.40028 650.352094 473.86744 696.520644 473.86744z" p-id="1781"></path></svg>